<svg xmlns="http://www.w3.org/2000/svg" xmlns:xlink="http://www.w3.org/1999/xlink" xmlns:lucid="lucid" width="1982" height="1322"><g transform="translate(-239 -119)" lucid:page-tab-id="YGcM5DNywbTK"><g filter="url(#a)"><path d="M260 204l76.8-64H2200v563.2l-64 76.8H260z" stroke="#3d4752" stroke-width="4" fill="#ffdf71"/><path d="M260 204l76.8-64H2200l-64 64z" stroke="#3d4752" stroke-width="4" fill="#e6c966"/><path d="M2136 204l64-64v563.2l-64 76.8z" stroke="#3d4752" stroke-width="4" fill="#ccb25a"/><use xlink:href="#b" transform="matrix(1,0,0,1,268,212) translate(48.505 21.333333333333336)"/><use xlink:href="#c" transform="matrix(1,0,0,1,268,212) translate(84.50500000000001 21.333333333333336)"/><use xlink:href="#c" transform="matrix(1,0,0,1,268,212) translate(120.50500000000001 21.333333333333336)"/><use xlink:href="#c" transform="matrix(1,0,0,1,268,212) translate(156.505 21.333333333333336)"/><use xlink:href="#c" transform="matrix(1,0,0,1,268,212) translate(192.505 21.333333333333336)"/><use xlink:href="#c" transform="matrix(1,0,0,1,268,212) translate(228.505 21.333333333333336)"/><use xlink:href="#c" transform="matrix(1,0,0,1,268,212) translate(264.505 21.333333333333336)"/><use xlink:href="#c" transform="matrix(1,0,0,1,268,212) translate(300.505 21.333333333333336)"/><use xlink:href="#c" transform="matrix(1,0,0,1,268,212) translate(336.505 21.333333333333336)"/><use xlink:href="#c" transform="matrix(1,0,0,1,268,212) translate(372.505 21.333333333333336)"/><use xlink:href="#c" transform="matrix(1,0,0,1,268,212) translate(408.505 21.333333333333336)"/><use xlink:href="#c" transform="matrix(1,0,0,1,268,212) translate(444.505 21.333333333333336)"/><use xlink:href="#c" transform="matrix(1,0,0,1,268,212) translate(480.505 21.333333333333336)"/><use xlink:href="#c" transform="matrix(1,0,0,1,268,212) translate(516.505 21.333333333333336)"/><use xlink:href="#c" transform="matrix(1,0,0,1,268,212) translate(552.505 21.333333333333336)"/><use xlink:href="#c" transform="matrix(1,0,0,1,268,212) translate(588.505 21.333333333333336)"/><use xlink:href="#c" transform="matrix(1,0,0,1,268,212) translate(624.505 21.333333333333336)"/><use xlink:href="#c" transform="matrix(1,0,0,1,268,212) translate(660.505 21.333333333333336)"/><use xlink:href="#c" transform="matrix(1,0,0,1,268,212) translate(696.505 21.333333333333336)"/><use xlink:href="#c" transform="matrix(1,0,0,1,268,212) translate(732.505 21.333333333333336)"/><use xlink:href="#c" transform="matrix(1,0,0,1,268,212) translate(768.505 21.333333333333336)"/><use xlink:href="#c" transform="matrix(1,0,0,1,268,212) translate(804.505 21.333333333333336)"/><use xlink:href="#c" transform="matrix(1,0,0,1,268,212) translate(840.505 21.333333333333336)"/><use xlink:href="#d" transform="matrix(1,0,0,1,268,212) translate(876.505 21.333333333333336)"/><use xlink:href="#c" transform="matrix(1,0,0,1,268,212) translate(1020.505 21.333333333333336)"/><use xlink:href="#c" transform="matrix(1,0,0,1,268,212) translate(1056.505 21.333333333333336)"/><use xlink:href="#c" transform="matrix(1,0,0,1,268,212) translate(1092.505 21.333333333333336)"/><use xlink:href="#c" transform="matrix(1,0,0,1,268,212) translate(1128.505 21.333333333333336)"/><use xlink:href="#c" transform="matrix(1,0,0,1,268,212) translate(1164.505 21.333333333333336)"/><use xlink:href="#c" transform="matrix(1,0,0,1,268,212) translate(1200.505 21.333333333333336)"/><use xlink:href="#c" transform="matrix(1,0,0,1,268,212) translate(1236.505 21.333333333333336)"/><use xlink:href="#c" transform="matrix(1,0,0,1,268,212) translate(1272.505 21.333333333333336)"/><use xlink:href="#c" transform="matrix(1,0,0,1,268,212) translate(1308.505 21.333333333333336)"/><use xlink:href="#e" transform="matrix(1,0,0,1,268,212) translate(1344.505 21.333333333333336)"/><use xlink:href="#c" transform="matrix(1,0,0,1,268,212) translate(403.52351851851853 56.53333333333334)"/><use xlink:href="#c" transform="matrix(1,0,0,1,268,212) translate(439.52351851851853 56.53333333333334)"/><use xlink:href="#c" transform="matrix(1,0,0,1,268,212) translate(475.52351851851853 56.53333333333334)"/><use xlink:href="#c" transform="matrix(1,0,0,1,268,212) translate(511.52351851851853 56.53333333333334)"/><use xlink:href="#c" transform="matrix(1,0,0,1,268,212) translate(547.5235185185186 56.53333333333334)"/><use xlink:href="#c" transform="matrix(1,0,0,1,268,212) translate(583.5235185185186 56.53333333333334)"/><use xlink:href="#c" transform="matrix(1,0,0,1,268,212) translate(619.5235185185186 56.53333333333334)"/><use xlink:href="#c" transform="matrix(1,0,0,1,268,212) translate(655.5235185185186 56.53333333333334)"/><use xlink:href="#c" transform="matrix(1,0,0,1,268,212) translate(691.5235185185186 56.53333333333334)"/><use xlink:href="#c" transform="matrix(1,0,0,1,268,212) translate(727.5235185185186 56.53333333333334)"/><use xlink:href="#c" transform="matrix(1,0,0,1,268,212) translate(763.5235185185186 56.53333333333334)"/><use xlink:href="#c" transform="matrix(1,0,0,1,268,212) translate(799.5235185185186 56.53333333333334)"/><use xlink:href="#c" transform="matrix(1,0,0,1,268,212) translate(835.5235185185186 56.53333333333334)"/><use xlink:href="#c" transform="matrix(1,0,0,1,268,212) translate(871.5235185185186 56.53333333333334)"/><use xlink:href="#f" transform="matrix(1,0,0,1,268,212) translate(907.5235185185186 56.53333333333334)"/></g><g filter="url(#g)"><path d="M400 356l43.2-36H1020v316.8L984 680H400z" stroke="#3d4752" stroke-width="4" fill="#c7e8ac"/><path d="M400 356l43.2-36H1020l-36 36z" stroke="#3d4752" stroke-width="4" fill="#b3d19b"/><path d="M984 356l36-36v316.8L984 680z" stroke="#3d4752" stroke-width="4" fill="#9fba8a"/><use xlink:href="#b" transform="matrix(1,0,0,1,408,364) translate(36.505 21.333333333333336)"/><use xlink:href="#c" transform="matrix(1,0,0,1,408,364) translate(72.50500000000001 21.333333333333336)"/><use xlink:href="#c" transform="matrix(1,0,0,1,408,364) translate(108.50500000000001 21.333333333333336)"/><use xlink:href="#h" transform="matrix(1,0,0,1,408,364) translate(144.505 21.333333333333336)"/><use xlink:href="#i" transform="matrix(1,0,0,1,408,364) translate(297.02351851851853 21.333333333333336)"/><use xlink:href="#e" transform="matrix(1,0,0,1,408,364) translate(432.505 21.333333333333336)"/><use xlink:href="#c" transform="matrix(1,0,0,1,408,364) translate(112.26425925925923 56.53333333333334)"/><use xlink:href="#c" transform="matrix(1,0,0,1,408,364) translate(148.26425925925923 56.53333333333334)"/><use xlink:href="#c" transform="matrix(1,0,0,1,408,364) translate(184.26425925925923 56.53333333333334)"/><use xlink:href="#j" transform="matrix(1,0,0,1,408,364) translate(220.26425925925923 56.53333333333334)"/></g><g filter="url(#k)"><path d="M1420 332l50.4-42H2040v369.6l-42 50.4h-578z" stroke="#3d4752" stroke-width="4" fill="#c1e4f7"/><path d="M1420 332l50.4-42H2040l-42 42z" stroke="#3d4752" stroke-width="4" fill="#aecdde"/><path d="M1998 332l42-42v369.6l-42 50.4z" stroke="#3d4752" stroke-width="4" fill="#9ab6c6"/><use xlink:href="#l" transform="matrix(1,0,0,1,1428,340) translate(149.92592592592592 21.333333333333336)"/><use xlink:href="#m" transform="matrix(1,0,0,1,1428,340) translate(318.5925925925926 21.333333333333336)"/><use xlink:href="#n" transform="matrix(1,0,0,1,1428,340) translate(275.96796296296293 56.53333333333334)"/></g><g filter="url(#o)"><path d="M440 440h500v120H440z" stroke="#3d4752" stroke-width="4" fill="#fff"/><path d="M420 460h40v20h-40zM420 520h40v20h-40z" stroke="#3d4752" stroke-width="4" fill="#fff"/><use xlink:href="#b" transform="matrix(1,0,0,1,524,452) translate(37.505 35.733333333333334)"/><use xlink:href="#p" transform="matrix(1,0,0,1,524,452) translate(73.50500000000001 35.733333333333334)"/><use xlink:href="#q" transform="matrix(1,0,0,1,524,452) translate(253.505 35.733333333333334)"/><use xlink:href="#c" transform="matrix(1,0,0,1,524,452) translate(289.505 35.733333333333334)"/><use xlink:href="#c" transform="matrix(1,0,0,1,524,452) translate(325.505 35.733333333333334)"/><use xlink:href="#e" transform="matrix(1,0,0,1,524,452) translate(361.505 35.733333333333334)"/><use xlink:href="#c" transform="matrix(1,0,0,1,524,452) translate(55.505 70.93333333333334)"/><use xlink:href="#r" transform="matrix(1,0,0,1,524,452) translate(91.50500000000001 70.93333333333334)"/><use xlink:href="#s" transform="matrix(1,0,0,1,524,452) translate(271.505 70.93333333333334)"/><use xlink:href="#c" transform="matrix(1,0,0,1,524,452) translate(307.505 70.93333333333334)"/><use xlink:href="#e" transform="matrix(1,0,0,1,524,452) translate(343.505 70.93333333333334)"/></g><path d="M1154.15 502H1024v-4h130.15zm261.85 0h-130.15v-4H1416z" fill="#494949"/><path d="M1024.05 502H1022v-4h2.05zM1418 502h-2.05v-4h2.05z" fill="#494949"/><use xlink:href="#t" transform="matrix(1,0,0,1,1154.148148148148,484) translate(0.0049999999999954525 21.333333333333336)"/><g filter="url(#o)"><path d="M1460 440h500v120h-500z" stroke="#3d4752" stroke-width="4" fill="#fff"/><path d="M1440 460h40v20h-40zM1440 520h40v20h-40z" stroke="#3d4752" stroke-width="4" fill="#fff"/><use xlink:href="#b" transform="matrix(1,0,0,1,1544,452) translate(37.505 35.733333333333334)"/><use xlink:href="#u" transform="matrix(1,0,0,1,1544,452) translate(73.50500000000001 35.733333333333334)"/><use xlink:href="#c" transform="matrix(1,0,0,1,1544,452) translate(289.505 35.733333333333334)"/><use xlink:href="#c" transform="matrix(1,0,0,1,1544,452) translate(325.505 35.733333333333334)"/><use xlink:href="#v" transform="matrix(1,0,0,1,1544,452) translate(361.505 35.733333333333334)"/><use xlink:href="#w" transform="matrix(1,0,0,1,1544,452) translate(109.495 70.93333333333334)"/><use xlink:href="#s" transform="matrix(1,0,0,1,1544,452) translate(217.505 70.93333333333334)"/><use xlink:href="#e" transform="matrix(1,0,0,1,1544,452) translate(253.505 70.93333333333334)"/></g><g filter="url(#o)"><path d="M1460 560h500v120h-500z" stroke="#3d4752" stroke-width="4" fill="#fff"/><path d="M1440 580h40v20h-40zM1440 640h40v20h-40z" stroke="#3d4752" stroke-width="4" fill="#fff"/><use xlink:href="#b" transform="matrix(1,0,0,1,1544,572) translate(37.505 35.733333333333334)"/><use xlink:href="#x" transform="matrix(1,0,0,1,1544,572) translate(73.50500000000001 35.733333333333334)"/><use xlink:href="#c" transform="matrix(1,0,0,1,1544,572) translate(289.505 35.733333333333334)"/><use xlink:href="#c" transform="matrix(1,0,0,1,1544,572) translate(325.505 35.733333333333334)"/><use xlink:href="#e" transform="matrix(1,0,0,1,1544,572) translate(361.505 35.733333333333334)"/><use xlink:href="#y" transform="matrix(1,0,0,1,1544,572) translate(127.505 70.93333333333334)"/><use xlink:href="#s" transform="matrix(1,0,0,1,1544,572) translate(235.505 70.93333333333334)"/><use xlink:href="#e" transform="matrix(1,0,0,1,1544,572) translate(271.505 70.93333333333334)"/></g><g filter="url(#g)"><path d="M920 1096l43.2-36H1540v316.8l-36 43.2H920z" stroke="#3d4752" stroke-width="4" fill="#ffbbb1"/><path d="M920 1096l43.2-36H1540l-36 36z" stroke="#3d4752" stroke-width="4" fill="#e6a89f"/><path d="M1504 1096l36-36v316.8l-36 43.2z" stroke="#3d4752" stroke-width="4" fill="#cc968e"/><use xlink:href="#b" transform="matrix(1,0,0,1,928,1104) translate(36.505 21.333333333333336)"/><use xlink:href="#c" transform="matrix(1,0,0,1,928,1104) translate(72.50500000000001 21.333333333333336)"/><use xlink:href="#c" transform="matrix(1,0,0,1,928,1104) translate(108.50500000000001 21.333333333333336)"/><use xlink:href="#c" transform="matrix(1,0,0,1,928,1104) translate(144.505 21.333333333333336)"/><use xlink:href="#c" transform="matrix(1,0,0,1,928,1104) translate(180.505 21.333333333333336)"/><use xlink:href="#d" transform="matrix(1,0,0,1,928,1104) translate(216.505 21.333333333333336)"/><use xlink:href="#c" transform="matrix(1,0,0,1,928,1104) translate(360.505 21.333333333333336)"/><use xlink:href="#c" transform="matrix(1,0,0,1,928,1104) translate(396.505 21.333333333333336)"/><use xlink:href="#e" transform="matrix(1,0,0,1,928,1104) translate(432.505 21.333333333333336)"/><use xlink:href="#c" transform="matrix(1,0,0,1,928,1104) translate(140.37537037037038 56.53333333333334)"/><use xlink:href="#c" transform="matrix(1,0,0,1,928,1104) translate(176.37537037037038 56.53333333333334)"/><use xlink:href="#c" transform="matrix(1,0,0,1,928,1104) translate(212.37537037037038 56.53333333333334)"/><use xlink:href="#z" transform="matrix(1,0,0,1,928,1104) translate(248.37537037037038 56.53333333333334)"/><use xlink:href="#A" transform="matrix(1,0,0,1,928,1104) translate(255.78277777777777 56.53333333333334)"/></g><g filter="url(#o)"><path d="M960 1200h500v120H960z" stroke="#3d4752" stroke-width="4" fill="#fff"/><path d="M940 1220h40v20h-40zM940 1280h40v20h-40z" stroke="#3d4752" stroke-width="4" fill="#fff"/><use xlink:href="#B" transform="matrix(1,0,0,1,1044,1212) translate(73.505 35.733333333333334)"/><use xlink:href="#c" transform="matrix(1,0,0,1,1044,1212) translate(289.505 35.733333333333334)"/><use xlink:href="#v" transform="matrix(1,0,0,1,1044,1212) translate(325.505 35.733333333333334)"/><use xlink:href="#C" transform="matrix(1,0,0,1,1044,1212) translate(91.505 70.93333333333334)"/><use xlink:href="#s" transform="matrix(1,0,0,1,1044,1212) translate(271.505 70.93333333333334)"/><use xlink:href="#e" transform="matrix(1,0,0,1,1044,1212) translate(307.505 70.93333333333334)"/></g><path d="M1232 1056h-4V936h4zm0-152h-4V784h4z" fill="#494949"/><path d="M1232 1058h-4v-2.05h4zM1232 784.05h-4V782h4z" fill="#494949"/><use xlink:href="#D" transform="matrix(1,0,0,1,1154.4814814814815,904) translate(0.0049999999999954525 21.333333333333336)"/><defs><path fill="#3d4752" d="M18-100v-36l175-74v27L42-118l151 64v27" id="E"/><path fill="#3d4752" d="M85-194c31 0 48 13 60 33l-1-100h32l1 261h-30c-2-10 0-23-3-31C134-8 116 4 85 4 32 4 16-35 15-94c0-66 23-100 70-100zm9 24c-40 0-46 34-46 75 0 40 6 74 45 74 42 0 51-32 51-76 0-42-9-74-50-73" id="F"/><path fill="#3d4752" d="M100-194c63 0 86 42 84 106H49c0 40 14 67 53 68 26 1 43-12 49-29l28 8c-11 28-37 45-77 45C44 4 14-33 15-96c1-61 26-98 85-98zm52 81c6-60-76-77-97-28-3 7-6 17-6 28h103" id="G"/><path fill="#3d4752" d="M108 0H70L1-190h34L89-25l56-165h34" id="H"/><path fill="#3d4752" d="M24-231v-30h32v30H24zM24 0v-190h32V0H24" id="I"/><path fill="#3d4752" d="M96-169c-40 0-48 33-48 73s9 75 48 75c24 0 41-14 43-38l32 2c-6 37-31 61-74 61-59 0-76-41-82-99-10-93 101-131 147-64 4 7 5 14 7 22l-32 3c-4-21-16-35-41-35" id="J"/><path fill="#3d4752" d="M18-27v-27l151-64-151-65v-27l175 74v36" id="K"/><g id="d"><use transform="matrix(0.07407407407407408,0,0,0.07407407407407408,0,0)" xlink:href="#E"/><use transform="matrix(0.07407407407407408,0,0,0.07407407407407408,15.555555555555557,0)" xlink:href="#E"/><use transform="matrix(0.07407407407407408,0,0,0.07407407407407408,31.111111111111114,0)" xlink:href="#F"/><use transform="matrix(0.07407407407407408,0,0,0.07407407407407408,45.92592592592593,0)" xlink:href="#G"/><use transform="matrix(0.07407407407407408,0,0,0.07407407407407408,60.74074074074075,0)" xlink:href="#H"/><use transform="matrix(0.07407407407407408,0,0,0.07407407407407408,74.07407407407408,0)" xlink:href="#I"/><use transform="matrix(0.07407407407407408,0,0,0.07407407407407408,79.92592592592592,0)" xlink:href="#J"/><use transform="matrix(0.07407407407407408,0,0,0.07407407407407408,93.25925925925927,0)" xlink:href="#G"/><use transform="matrix(0.07407407407407408,0,0,0.07407407407407408,108.07407407407408,0)" xlink:href="#K"/><use transform="matrix(0.07407407407407408,0,0,0.07407407407407408,123.62962962962963,0)" xlink:href="#K"/></g><path fill="#3d4752" d="M169-182c-1-43-94-46-97-3 18 66 151 10 154 114 3 95-165 93-204 36-6-8-10-19-12-30l50-8c3 46 112 56 116 5-17-69-150-10-154-114-4-87 153-88 188-35 5 8 8 18 10 28" id="L"/><path fill="#3d4752" d="M185-48c-13 30-37 53-82 52C43 2 14-33 14-96s30-98 90-98c62 0 83 45 84 108H66c0 31 8 55 39 56 18 0 30-7 34-22zm-45-69c5-46-57-63-70-21-2 6-4 13-4 21h74" id="M"/><path fill="#3d4752" d="M135-150c-39-12-60 13-60 57V0H25l-1-190h47c2 13-1 29 3 40 6-28 27-53 61-41v41" id="N"/><path fill="#3d4752" d="M128 0H69L1-190h53L99-40l48-150h52" id="O"/><g id="f"><use transform="matrix(0.07407407407407408,0,0,0.07407407407407408,0,0)" xlink:href="#L"/><use transform="matrix(0.07407407407407408,0,0,0.07407407407407408,17.77777777777778,0)" xlink:href="#M"/><use transform="matrix(0.07407407407407408,0,0,0.07407407407407408,32.592592592592595,0)" xlink:href="#N"/><use transform="matrix(0.07407407407407408,0,0,0.07407407407407408,42.96296296296297,0)" xlink:href="#O"/><use transform="matrix(0.07407407407407408,0,0,0.07407407407407408,57.777777777777786,0)" xlink:href="#M"/><use transform="matrix(0.07407407407407408,0,0,0.07407407407407408,72.59259259259261,0)" xlink:href="#N"/></g><filter id="a" filterUnits="objectBoundingBox" x="-.01" y="-.01" width="1.01" height="1.03"><feOffset result="offOut" in="SourceAlpha" dy="6"/><feGaussianBlur result="blurOut" in="offOut" stdDeviation="5"/><feColorMatrix result="colorOut" in="blurOut" values="0 0 0 0 0 0 0 0 0 0 0 0 0 0 0 0 0 0 0.16862745098039217 0"/><feBlend in="SourceGraphic" in2="colorOut"/></filter><path fill="#3d4752" d="M30-248c118-7 216 8 213 122C240-48 200 0 122 0H30v-248zM63-27c89 8 146-16 146-99s-60-101-146-95v194" id="P"/><path fill="#3d4752" d="M141-36C126-15 110 5 73 4 37 3 15-17 15-53c-1-64 63-63 125-63 3-35-9-54-41-54-24 1-41 7-42 31l-33-3c5-37 33-52 76-52 45 0 72 20 72 64v82c-1 20 7 32 28 27v20c-31 9-61-2-59-35zM48-53c0 20 12 33 32 33 41-3 63-29 60-74-43 2-92-5-92 41" id="Q"/><path fill="#3d4752" d="M59-47c-2 24 18 29 38 22v24C64 9 27 4 27-40v-127H5v-23h24l9-43h21v43h35v23H59v120" id="R"/><path fill="#3d4752" d="M115-194c53 0 69 39 70 98 0 66-23 100-70 100C84 3 66-7 56-30L54 0H23l1-261h32v101c10-23 28-34 59-34zm-8 174c40 0 45-34 45-75 0-40-5-75-45-74-42 0-51 32-51 76 0 43 10 73 51 73" id="S"/><path fill="#3d4752" d="M135-143c-3-34-86-38-87 0 15 53 115 12 119 90S17 21 10-45l28-5c4 36 97 45 98 0-10-56-113-15-118-90-4-57 82-63 122-42 12 7 21 19 24 35" id="T"/><g id="h"><use transform="matrix(0.07407407407407408,0,0,0.07407407407407408,0,0)" xlink:href="#E"/><use transform="matrix(0.07407407407407408,0,0,0.07407407407407408,15.555555555555557,0)" xlink:href="#E"/><use transform="matrix(0.07407407407407408,0,0,0.07407407407407408,31.111111111111114,0)" xlink:href="#P"/><use transform="matrix(0.07407407407407408,0,0,0.07407407407407408,50.296296296296305,0)" xlink:href="#Q"/><use transform="matrix(0.07407407407407408,0,0,0.07407407407407408,65.11111111111111,0)" xlink:href="#R"/><use transform="matrix(0.07407407407407408,0,0,0.07407407407407408,72.51851851851852,0)" xlink:href="#Q"/><use transform="matrix(0.07407407407407408,0,0,0.07407407407407408,87.33333333333334,0)" xlink:href="#S"/><use transform="matrix(0.07407407407407408,0,0,0.07407407407407408,102.14814814814814,0)" xlink:href="#Q"/><use transform="matrix(0.07407407407407408,0,0,0.07407407407407408,116.96296296296296,0)" xlink:href="#T"/><use transform="matrix(0.07407407407407408,0,0,0.07407407407407408,130.2962962962963,0)" xlink:href="#G"/></g><path fill="#3d4752" d="M185-189c-5-48-123-54-124 2 14 75 158 14 163 119 3 78-121 87-175 55-17-10-28-26-33-46l33-7c5 56 141 63 141-1 0-78-155-14-162-118-5-82 145-84 179-34 5 7 8 16 11 25" id="U"/><path fill="#3d4752" d="M114-163C36-179 61-72 57 0H25l-1-190h30c1 12-1 29 2 39 6-27 23-49 58-41v29" id="V"/><g id="i"><use transform="matrix(0.07407407407407408,0,0,0.07407407407407408,0,0)" xlink:href="#U"/><use transform="matrix(0.07407407407407408,0,0,0.07407407407407408,17.77777777777778,0)" xlink:href="#G"/><use transform="matrix(0.07407407407407408,0,0,0.07407407407407408,32.592592592592595,0)" xlink:href="#V"/><use transform="matrix(0.07407407407407408,0,0,0.07407407407407408,41.40740740740741,0)" xlink:href="#H"/><use transform="matrix(0.07407407407407408,0,0,0.07407407407407408,54.74074074074075,0)" xlink:href="#G"/><use transform="matrix(0.07407407407407408,0,0,0.07407407407407408,69.55555555555557,0)" xlink:href="#V"/><use transform="matrix(0.07407407407407408,0,0,0.07407407407407408,78.37037037037038,0)" xlink:href="#K"/><use transform="matrix(0.07407407407407408,0,0,0.07407407407407408,93.92592592592594,0)" xlink:href="#K"/></g><path fill="#3d4752" d="M24-248c93 1 206-16 204 79-1 75-69 88-152 82V0H24v-248zm52 121c47 0 100 7 100-41 0-47-54-39-100-39v80" id="W"/><path fill="#3d4752" d="M110-194c64 0 96 36 96 99 0 64-35 99-97 99-61 0-95-36-95-99 0-62 34-99 96-99zm-1 164c35 0 45-28 45-65 0-40-10-65-43-65-34 0-45 26-45 65 0 36 10 65 43 65" id="X"/><path fill="#3d4752" d="M137-138c1-29-70-34-71-4 15 46 118 7 119 86 1 83-164 76-172 9l43-7c4 19 20 25 44 25 33 8 57-30 24-41C81-84 22-81 20-136c-2-80 154-74 161-7" id="Y"/><path fill="#3d4752" d="M115-3C79 11 28 4 28-45v-112H4v-33h27l15-45h31v45h36v33H77v99c-1 23 16 31 38 25v30" id="Z"/><path fill="#3d4752" d="M195-6C206 82 75 100 31 46c-4-6-6-13-8-21l49-6c3 16 16 24 34 25 40 0 42-37 40-79-11 22-30 35-61 35-53 0-70-43-70-97 0-56 18-96 73-97 30 0 46 14 59 34l2-30h47zm-90-29c32 0 41-27 41-63 0-35-9-62-40-62-32 0-39 29-40 63 0 36 9 62 39 62" id="aa"/><path fill="#3d4752" d="M84 4C32 4 15-41 15-95c0-55 18-99 73-99 29 0 47 12 58 34l2-30h48l-1 265h-49V-32C136-9 114 4 84 4zm21-34c32 0 41-29 41-66 0-36-9-64-40-64-33 0-39 30-40 65 0 43 13 65 39 65" id="ab"/><path fill="#3d4752" d="M25 0v-261h50V0H25" id="ac"/><g id="j"><use transform="matrix(0.07407407407407408,0,0,0.07407407407407408,0,0)" xlink:href="#W"/><use transform="matrix(0.07407407407407408,0,0,0.07407407407407408,17.77777777777778,0)" xlink:href="#X"/><use transform="matrix(0.07407407407407408,0,0,0.07407407407407408,34,0)" xlink:href="#Y"/><use transform="matrix(0.07407407407407408,0,0,0.07407407407407408,48.81481481481481,0)" xlink:href="#Z"/><use transform="matrix(0.07407407407407408,0,0,0.07407407407407408,57.62962962962964,0)" xlink:href="#aa"/><use transform="matrix(0.07407407407407408,0,0,0.07407407407407408,73.85185185185186,0)" xlink:href="#N"/><use transform="matrix(0.07407407407407408,0,0,0.07407407407407408,84.22222222222223,0)" xlink:href="#M"/><use transform="matrix(0.07407407407407408,0,0,0.07407407407407408,99.03703703703704,0)" xlink:href="#Y"/><use transform="matrix(0.07407407407407408,0,0,0.07407407407407408,113.85185185185185,0)" xlink:href="#ab"/><use transform="matrix(0.07407407407407408,0,0,0.07407407407407408,130.07407407407408,0)" xlink:href="#ac"/></g><filter id="g" filterUnits="objectBoundingBox" x="-.02" y="-.01" width="1.03" height="1.06"><feOffset result="offOut" in="SourceAlpha" dy="6"/><feGaussianBlur result="blurOut" in="offOut" stdDeviation="5"/><feColorMatrix result="colorOut" in="blurOut" values="0 0 0 0 0 0 0 0 0 0 0 0 0 0 0 0 0 0 0.16862745098039217 0"/><feBlend in="SourceGraphic" in2="colorOut"/></filter><path fill="#3d4752" d="M205 0l-28-72H64L36 0H1l101-248h38L239 0h-34zm-38-99l-47-123c-12 45-31 82-46 123h93" id="ad"/><path fill="#3d4752" d="M115-194c55 1 70 41 70 98S169 2 115 4C84 4 66-9 55-30l1 105H24l-1-265h31l2 30c10-21 28-34 59-34zm-8 174c40 0 45-34 45-75s-6-73-45-74c-42 0-51 32-51 76 0 43 10 73 51 73" id="ae"/><path fill="#3d4752" d="M24 0v-261h32V0H24" id="af"/><path fill="#3d4752" d="M100-194c62-1 85 37 85 99 1 63-27 99-86 99S16-35 15-95c0-66 28-99 85-99zM99-20c44 1 53-31 53-75 0-43-8-75-51-75s-53 32-53 75 10 74 51 75" id="ag"/><path fill="#3d4752" d="M117-194c89-4 53 116 60 194h-32v-121c0-31-8-49-39-48C34-167 62-67 57 0H25l-1-190h30c1 10-1 24 2 32 11-22 29-35 61-36" id="ah"/><g id="l"><use transform="matrix(0.07407407407407408,0,0,0.07407407407407408,0,0)" xlink:href="#E"/><use transform="matrix(0.07407407407407408,0,0,0.07407407407407408,15.555555555555557,0)" xlink:href="#E"/><use transform="matrix(0.07407407407407408,0,0,0.07407407407407408,31.111111111111114,0)" xlink:href="#ad"/><use transform="matrix(0.07407407407407408,0,0,0.07407407407407408,48.88888888888889,0)" xlink:href="#ae"/><use transform="matrix(0.07407407407407408,0,0,0.07407407407407408,63.70370370370371,0)" xlink:href="#ae"/><use transform="matrix(0.07407407407407408,0,0,0.07407407407407408,78.51851851851853,0)" xlink:href="#af"/><use transform="matrix(0.07407407407407408,0,0,0.07407407407407408,84.37037037037038,0)" xlink:href="#I"/><use transform="matrix(0.07407407407407408,0,0,0.07407407407407408,90.22222222222223,0)" xlink:href="#J"/><use transform="matrix(0.07407407407407408,0,0,0.07407407407407408,103.55555555555557,0)" xlink:href="#Q"/><use transform="matrix(0.07407407407407408,0,0,0.07407407407407408,118.37037037037038,0)" xlink:href="#R"/><use transform="matrix(0.07407407407407408,0,0,0.07407407407407408,125.77777777777777,0)" xlink:href="#I"/><use transform="matrix(0.07407407407407408,0,0,0.07407407407407408,131.62962962962965,0)" xlink:href="#ag"/><use transform="matrix(0.07407407407407408,0,0,0.07407407407407408,146.44444444444446,0)" xlink:href="#ah"/></g><g id="m"><use transform="matrix(0.07407407407407408,0,0,0.07407407407407408,0,0)" xlink:href="#U"/><use transform="matrix(0.07407407407407408,0,0,0.07407407407407408,17.77777777777778,0)" xlink:href="#G"/><use transform="matrix(0.07407407407407408,0,0,0.07407407407407408,32.592592592592595,0)" xlink:href="#V"/><use transform="matrix(0.07407407407407408,0,0,0.07407407407407408,41.40740740740741,0)" xlink:href="#H"/><use transform="matrix(0.07407407407407408,0,0,0.07407407407407408,54.74074074074075,0)" xlink:href="#G"/><use transform="matrix(0.07407407407407408,0,0,0.07407407407407408,69.55555555555557,0)" xlink:href="#V"/><use transform="matrix(0.07407407407407408,0,0,0.07407407407407408,78.37037037037038,0)" xlink:href="#K"/><use transform="matrix(0.07407407407407408,0,0,0.07407407407407408,93.92592592592594,0)" xlink:href="#K"/></g><path fill="#3d4752" d="M176-78C186 10 51 31 16-35c-5-9-9-19-11-32l52-8c4 21 12 37 35 38 23 0 32-16 32-40v-130H75v-41h101v170" id="ai"/><path fill="#3d4752" d="M123 10C108 53 80 86 19 72V37c35 8 53-11 59-39L3-190h52l48 148c12-52 28-100 44-148h51" id="aj"/><g id="n"><use transform="matrix(0.07407407407407408,0,0,0.07407407407407408,0,0)" xlink:href="#ai"/><use transform="matrix(0.07407407407407408,0,0,0.07407407407407408,14.814814814814817,0)" xlink:href="#M"/><use transform="matrix(0.07407407407407408,0,0,0.07407407407407408,29.629629629629633,0)" xlink:href="#Z"/><use transform="matrix(0.07407407407407408,0,0,0.07407407407407408,38.44444444444445,0)" xlink:href="#Z"/><use transform="matrix(0.07407407407407408,0,0,0.07407407407407408,47.25925925925927,0)" xlink:href="#aj"/></g><filter id="k" filterUnits="objectBoundingBox" x="-.02" y="-.01" width="1.03" height="1.05"><feOffset result="offOut" in="SourceAlpha" dy="6"/><feGaussianBlur result="blurOut" in="offOut" stdDeviation="5"/><feColorMatrix result="colorOut" in="blurOut" values="0 0 0 0 0 0 0 0 0 0 0 0 0 0 0 0 0 0 0.16862745098039217 0"/><feBlend in="SourceGraphic" in2="colorOut"/></filter><g id="p"><use transform="matrix(0.07407407407407408,0,0,0.07407407407407408,0,0)" xlink:href="#E"/><use transform="matrix(0.07407407407407408,0,0,0.07407407407407408,15.555555555555557,0)" xlink:href="#E"/><use transform="matrix(0.07407407407407408,0,0,0.07407407407407408,31.111111111111114,0)" xlink:href="#F"/><use transform="matrix(0.07407407407407408,0,0,0.07407407407407408,45.92592592592593,0)" xlink:href="#Q"/><use transform="matrix(0.07407407407407408,0,0,0.07407407407407408,60.74074074074075,0)" xlink:href="#R"/><use transform="matrix(0.07407407407407408,0,0,0.07407407407407408,68.14814814814815,0)" xlink:href="#Q"/><use transform="matrix(0.07407407407407408,0,0,0.07407407407407408,82.96296296296296,0)" xlink:href="#S"/><use transform="matrix(0.07407407407407408,0,0,0.07407407407407408,97.77777777777777,0)" xlink:href="#Q"/><use transform="matrix(0.07407407407407408,0,0,0.07407407407407408,112.59259259259257,0)" xlink:href="#T"/><use transform="matrix(0.07407407407407408,0,0,0.07407407407407408,125.92592592592592,0)" xlink:href="#G"/><use transform="matrix(0.07407407407407408,0,0,0.07407407407407408,140.74074074074073,0)" xlink:href="#K"/><use transform="matrix(0.07407407407407408,0,0,0.07407407407407408,156.2962962962963,0)" xlink:href="#K"/></g><path fill="#3d4752" d="M135-194c53 0 70 44 70 98 0 56-19 98-73 100-31 1-45-17-59-34 3 33 2 69 2 105H25l-1-265h48c2 10 0 23 3 31 11-24 29-35 60-35zM114-30c33 0 39-31 40-66 0-38-9-64-40-64-56 0-55 130 0 130" id="ak"/><path fill="#3d4752" d="M88-194c31-1 46 15 58 34l-1-101h50l1 261h-48c-2-10 0-23-3-31C134-8 116 4 84 4 32 4 16-41 15-95c0-56 19-97 73-99zm17 164c33 0 40-30 41-66 1-37-9-64-41-64s-38 30-39 65c0 43 13 65 39 65" id="al"/><path fill="#3d4752" d="M190-63c-7 42-38 67-86 67-59 0-84-38-90-98-12-110 154-137 174-36l-49 2c-2-19-15-32-35-32-30 0-35 28-38 64-6 74 65 87 74 30" id="am"/><path fill="#3d4752" d="M14-72v-43h91v43H14" id="an"/><path fill="#3d4752" d="M135-194c52 0 70 43 70 98 0 56-19 99-73 100-30 1-46-15-58-35L72 0H24l1-261h50v104c11-23 29-37 60-37zM114-30c31 0 40-27 40-66 0-37-7-63-39-63s-41 28-41 65c0 36 8 64 40 64" id="ao"/><g id="r"><use transform="matrix(0.07407407407407408,0,0,0.07407407407407408,0,0)" xlink:href="#M"/><use transform="matrix(0.07407407407407408,0,0,0.07407407407407408,14.814814814814817,0)" xlink:href="#ak"/><use transform="matrix(0.07407407407407408,0,0,0.07407407407407408,31.03703703703704,0)" xlink:href="#Y"/><use transform="matrix(0.07407407407407408,0,0,0.07407407407407408,45.851851851851855,0)" xlink:href="#aj"/><use transform="matrix(0.07407407407407408,0,0,0.07407407407407408,60.66666666666667,0)" xlink:href="#al"/><use transform="matrix(0.07407407407407408,0,0,0.07407407407407408,76.8888888888889,0)" xlink:href="#X"/><use transform="matrix(0.07407407407407408,0,0,0.07407407407407408,93.11111111111113,0)" xlink:href="#am"/><use transform="matrix(0.07407407407407408,0,0,0.07407407407407408,107.92592592592595,0)" xlink:href="#an"/><use transform="matrix(0.07407407407407408,0,0,0.07407407407407408,116.74074074074076,0)" xlink:href="#al"/><use transform="matrix(0.07407407407407408,0,0,0.07407407407407408,132.962962962963,0)" xlink:href="#ao"/></g><filter id="o" filterUnits="objectBoundingBox" x="-.02" y="-.03" width="1.04" height="1.17"><feOffset result="offOut" in="SourceAlpha" dy="6"/><feGaussianBlur result="blurOut" in="offOut" stdDeviation="5"/><feColorMatrix result="colorOut" in="blurOut" values="0 0 0 0 0 0 0 0 0 0 0 0 0 0 0 0 0 0 0.16862745098039217 0"/><feBlend in="SourceGraphic" in2="colorOut"/></filter><path fill="#3d4752" d="M153-248C145-148 188 4 80 4 36 3 13-21 6-62l32-5c4 25 16 42 43 43 27 0 39-20 39-49v-147H72v-28h81" id="ap"/><path fill="#3d4752" d="M160-131c35 5 61 23 61 61C221 17 115-2 30 0v-248c76 3 177-17 177 60 0 33-19 50-47 57zm-97-11c50-1 110 9 110-42 0-47-63-36-110-37v79zm0 115c55-2 124 14 124-45 0-56-70-42-124-44v89" id="aq"/><path fill="#3d4752" d="M212-179c-10-28-35-45-73-45-59 0-87 40-87 99 0 60 29 101 89 101 43 0 62-24 78-52l27 14C228-24 195 4 139 4 59 4 22-46 18-125c-6-104 99-153 187-111 19 9 31 26 39 46" id="ar"/><g id="t"><use transform="matrix(0.07407407407407408,0,0,0.07407407407407408,0,0)" xlink:href="#E"/><use transform="matrix(0.07407407407407408,0,0,0.07407407407407408,15.555555555555557,0)" xlink:href="#E"/><use transform="matrix(0.07407407407407408,0,0,0.07407407407407408,31.111111111111114,0)" xlink:href="#ap"/><use transform="matrix(0.07407407407407408,0,0,0.07407407407407408,44.44444444444445,0)" xlink:href="#P"/><use transform="matrix(0.07407407407407408,0,0,0.07407407407407408,63.629629629629626,0)" xlink:href="#aq"/><use transform="matrix(0.07407407407407408,0,0,0.07407407407407408,81.40740740740742,0)" xlink:href="#ar"/><use transform="matrix(0.07407407407407408,0,0,0.07407407407407408,100.59259259259261,0)" xlink:href="#K"/><use transform="matrix(0.07407407407407408,0,0,0.07407407407407408,116.14814814814817,0)" xlink:href="#K"/></g><g id="u"><use transform="matrix(0.07407407407407408,0,0,0.07407407407407408,0,0)" xlink:href="#E"/><use transform="matrix(0.07407407407407408,0,0,0.07407407407407408,15.555555555555557,0)" xlink:href="#E"/><use transform="matrix(0.07407407407407408,0,0,0.07407407407407408,31.111111111111114,0)" xlink:href="#Q"/><use transform="matrix(0.07407407407407408,0,0,0.07407407407407408,45.92592592592593,0)" xlink:href="#ae"/><use transform="matrix(0.07407407407407408,0,0,0.07407407407407408,60.74074074074075,0)" xlink:href="#ae"/><use transform="matrix(0.07407407407407408,0,0,0.07407407407407408,75.55555555555557,0)" xlink:href="#af"/><use transform="matrix(0.07407407407407408,0,0,0.07407407407407408,81.40740740740742,0)" xlink:href="#I"/><use transform="matrix(0.07407407407407408,0,0,0.07407407407407408,87.25925925925927,0)" xlink:href="#J"/><use transform="matrix(0.07407407407407408,0,0,0.07407407407407408,100.59259259259261,0)" xlink:href="#Q"/><use transform="matrix(0.07407407407407408,0,0,0.07407407407407408,115.40740740740742,0)" xlink:href="#R"/><use transform="matrix(0.07407407407407408,0,0,0.07407407407407408,122.81481481481484,0)" xlink:href="#I"/><use transform="matrix(0.07407407407407408,0,0,0.07407407407407408,128.66666666666669,0)" xlink:href="#ag"/><use transform="matrix(0.07407407407407408,0,0,0.07407407407407408,143.4814814814815,0)" xlink:href="#ah"/><use transform="matrix(0.07407407407407408,0,0,0.07407407407407408,158.2962962962963,0)" xlink:href="#K"/><use transform="matrix(0.07407407407407408,0,0,0.07407407407407408,173.85185185185185,0)" xlink:href="#K"/></g><g id="w"><use transform="matrix(0.07407407407407408,0,0,0.07407407407407408,0,0)" xlink:href="#M"/><use transform="matrix(0.07407407407407408,0,0,0.07407407407407408,14.814814814814817,0)" xlink:href="#ak"/><use transform="matrix(0.07407407407407408,0,0,0.07407407407407408,31.03703703703704,0)" xlink:href="#Y"/><use transform="matrix(0.07407407407407408,0,0,0.07407407407407408,45.851851851851855,0)" xlink:href="#aj"/><use transform="matrix(0.07407407407407408,0,0,0.07407407407407408,60.66666666666667,0)" xlink:href="#al"/><use transform="matrix(0.07407407407407408,0,0,0.07407407407407408,76.8888888888889,0)" xlink:href="#X"/><use transform="matrix(0.07407407407407408,0,0,0.07407407407407408,93.11111111111113,0)" xlink:href="#am"/></g><path fill="#3d4752" d="M101-234c-31-9-42 10-38 44h38v23H63V0H32v-167H5v-23h27c-7-52 17-82 69-68v24" id="as"/><path fill="#3d4752" d="M210-169c-67 3-38 105-44 169h-31v-121c0-29-5-50-35-48C34-165 62-65 56 0H25l-1-190h30c1 10-1 24 2 32 10-44 99-50 107 0 11-21 27-35 58-36 85-2 47 119 55 194h-31v-121c0-29-5-49-35-48" id="at"/><path fill="#3d4752" d="M206 0h-36l-40-164L89 0H53L-1-190h32L70-26l43-164h34l41 164 42-164h31" id="au"/><path fill="#3d4752" d="M143 0L79-87 56-68V0H24v-261h32v163l83-92h37l-77 82L181 0h-38" id="av"/><g id="x"><use transform="matrix(0.07407407407407408,0,0,0.07407407407407408,0,0)" xlink:href="#E"/><use transform="matrix(0.07407407407407408,0,0,0.07407407407407408,15.555555555555557,0)" xlink:href="#E"/><use transform="matrix(0.07407407407407408,0,0,0.07407407407407408,31.111111111111114,0)" xlink:href="#as"/><use transform="matrix(0.07407407407407408,0,0,0.07407407407407408,38.51851851851851,0)" xlink:href="#V"/><use transform="matrix(0.07407407407407408,0,0,0.07407407407407408,47.33333333333334,0)" xlink:href="#Q"/><use transform="matrix(0.07407407407407408,0,0,0.07407407407407408,62.14814814814816,0)" xlink:href="#at"/><use transform="matrix(0.07407407407407408,0,0,0.07407407407407408,84.2962962962963,0)" xlink:href="#G"/><use transform="matrix(0.07407407407407408,0,0,0.07407407407407408,99.11111111111111,0)" xlink:href="#au"/><use transform="matrix(0.07407407407407408,0,0,0.07407407407407408,118.29629629629632,0)" xlink:href="#ag"/><use transform="matrix(0.07407407407407408,0,0,0.07407407407407408,133.11111111111111,0)" xlink:href="#V"/><use transform="matrix(0.07407407407407408,0,0,0.07407407407407408,141.92592592592592,0)" xlink:href="#av"/><use transform="matrix(0.07407407407407408,0,0,0.07407407407407408,155.25925925925927,0)" xlink:href="#K"/><use transform="matrix(0.07407407407407408,0,0,0.07407407407407408,170.81481481481484,0)" xlink:href="#K"/></g><path fill="#3d4752" d="M133-34C117-15 103 5 69 4 32 3 11-16 11-54c-1-60 55-63 116-61 1-26-3-47-28-47-18 1-26 9-28 27l-52-2c7-38 36-58 82-57s74 22 75 68l1 82c-1 14 12 18 25 15v27c-30 8-71 5-69-32zm-48 3c29 0 43-24 42-57-32 0-66-3-65 30 0 17 8 27 23 27" id="aw"/><path fill="#3d4752" d="M25-224v-37h50v37H25zM25 0v-190h50V0H25" id="ax"/><path fill="#3d4752" d="M135-194c87-1 58 113 63 194h-50c-7-57 23-157-34-157-59 0-34 97-39 157H25l-1-190h47c2 12-1 28 3 38 12-26 28-41 61-42" id="ay"/><g id="y"><use transform="matrix(0.07407407407407408,0,0,0.07407407407407408,0,0)" xlink:href="#O"/><use transform="matrix(0.07407407407407408,0,0,0.07407407407407408,14.814814814814817,0)" xlink:href="#aw"/><use transform="matrix(0.07407407407407408,0,0,0.07407407407407408,29.629629629629633,0)" xlink:href="#aw"/><use transform="matrix(0.07407407407407408,0,0,0.07407407407407408,44.44444444444445,0)" xlink:href="#al"/><use transform="matrix(0.07407407407407408,0,0,0.07407407407407408,60.66666666666667,0)" xlink:href="#ax"/><use transform="matrix(0.07407407407407408,0,0,0.07407407407407408,68.07407407407408,0)" xlink:href="#ay"/></g><path fill="#3d4752" d="M67-125c0 53 21 87 73 88 37 1 54-22 65-47l45 17C233-25 199 4 140 4 58 4 20-42 15-125 8-235 124-281 211-232c18 10 29 29 36 50l-46 12c-8-25-30-41-62-41-52 0-71 34-72 86" id="az"/><g id="A"><use transform="matrix(0.07407407407407408,0,0,0.07407407407407408,0,0)" xlink:href="#az"/><use transform="matrix(0.07407407407407408,0,0,0.07407407407407408,19.185185185185187,0)" xlink:href="#ac"/><use transform="matrix(0.07407407407407408,0,0,0.07407407407407408,26.592592592592595,0)" xlink:href="#ax"/><use transform="matrix(0.07407407407407408,0,0,0.07407407407407408,34,0)" xlink:href="#M"/><use transform="matrix(0.07407407407407408,0,0,0.07407407407407408,48.81481481481481,0)" xlink:href="#ay"/><use transform="matrix(0.07407407407407408,0,0,0.07407407407407408,65.03703703703704,0)" xlink:href="#Z"/></g><g id="B"><use transform="matrix(0.07407407407407408,0,0,0.07407407407407408,0,0)" xlink:href="#E"/><use transform="matrix(0.07407407407407408,0,0,0.07407407407407408,15.555555555555557,0)" xlink:href="#E"/><use transform="matrix(0.07407407407407408,0,0,0.07407407407407408,31.111111111111114,0)" xlink:href="#Q"/><use transform="matrix(0.07407407407407408,0,0,0.07407407407407408,45.92592592592593,0)" xlink:href="#ae"/><use transform="matrix(0.07407407407407408,0,0,0.07407407407407408,60.74074074074075,0)" xlink:href="#ae"/><use transform="matrix(0.07407407407407408,0,0,0.07407407407407408,75.55555555555557,0)" xlink:href="#af"/><use transform="matrix(0.07407407407407408,0,0,0.07407407407407408,81.40740740740742,0)" xlink:href="#I"/><use transform="matrix(0.07407407407407408,0,0,0.07407407407407408,87.25925925925927,0)" xlink:href="#J"/><use transform="matrix(0.07407407407407408,0,0,0.07407407407407408,100.59259259259261,0)" xlink:href="#Q"/><use transform="matrix(0.07407407407407408,0,0,0.07407407407407408,115.40740740740742,0)" xlink:href="#R"/><use transform="matrix(0.07407407407407408,0,0,0.07407407407407408,122.81481481481484,0)" xlink:href="#I"/><use transform="matrix(0.07407407407407408,0,0,0.07407407407407408,128.66666666666669,0)" xlink:href="#ag"/><use transform="matrix(0.07407407407407408,0,0,0.07407407407407408,143.4814814814815,0)" xlink:href="#ah"/><use transform="matrix(0.07407407407407408,0,0,0.07407407407407408,158.2962962962963,0)" xlink:href="#K"/><use transform="matrix(0.07407407407407408,0,0,0.07407407407407408,173.85185185185185,0)" xlink:href="#K"/></g><path fill="#3d4752" d="M275 0h-61l-44-196L126 0H64L0-248h53L97-49l45-199h58l43 199 44-199h52" id="aA"/><path fill="#3d4752" d="M231 0h-52l-39-155L100 0H48L-1-190h46L77-45c9-52 24-97 36-145h53l37 145 32-145h46" id="aB"/><g id="C"><use transform="matrix(0.07407407407407408,0,0,0.07407407407407408,0,0)" xlink:href="#aA"/><use transform="matrix(0.07407407407407408,0,0,0.07407407407407408,24.592592592592595,0)" xlink:href="#M"/><use transform="matrix(0.07407407407407408,0,0,0.07407407407407408,39.40740740740741,0)" xlink:href="#ao"/><use transform="matrix(0.07407407407407408,0,0,0.07407407407407408,55.62962962962964,0)" xlink:href="#ao"/><use transform="matrix(0.07407407407407408,0,0,0.07407407407407408,71.85185185185186,0)" xlink:href="#N"/><use transform="matrix(0.07407407407407408,0,0,0.07407407407407408,82.22222222222223,0)" xlink:href="#X"/><use transform="matrix(0.07407407407407408,0,0,0.07407407407407408,98.44444444444446,0)" xlink:href="#aB"/><use transform="matrix(0.07407407407407408,0,0,0.07407407407407408,119.1851851851852,0)" xlink:href="#Y"/><use transform="matrix(0.07407407407407408,0,0,0.07407407407407408,134.00000000000003,0)" xlink:href="#M"/><use transform="matrix(0.07407407407407408,0,0,0.07407407407407408,148.81481481481484,0)" xlink:href="#N"/></g><path fill="#3d4752" d="M145-31C134-9 116 4 85 4 32 4 16-35 15-94c0-59 17-99 70-100 32-1 48 14 60 33 0-11-1-24 2-32h30l-1 268h-32zM93-21c41 0 51-33 51-76s-8-73-50-73c-40 0-46 35-46 75s5 74 45 74" id="aC"/><path fill="#3d4752" d="M84 4C-5 8 30-112 23-190h32v120c0 31 7 50 39 49 72-2 45-101 50-169h31l1 190h-30c-1-10 1-25-2-33-11 22-28 36-60 37" id="aD"/><g id="D"><use transform="matrix(0.07407407407407408,0,0,0.07407407407407408,0,0)" xlink:href="#E"/><use transform="matrix(0.07407407407407408,0,0,0.07407407407407408,15.555555555555557,0)" xlink:href="#E"/><use transform="matrix(0.07407407407407408,0,0,0.07407407407407408,31.111111111111114,0)" xlink:href="#V"/><use transform="matrix(0.07407407407407408,0,0,0.07407407407407408,39.92592592592593,0)" xlink:href="#G"/><use transform="matrix(0.07407407407407408,0,0,0.07407407407407408,54.74074074074075,0)" xlink:href="#aC"/><use transform="matrix(0.07407407407407408,0,0,0.07407407407407408,69.55555555555557,0)" xlink:href="#aD"/><use transform="matrix(0.07407407407407408,0,0,0.07407407407407408,84.37037037037038,0)" xlink:href="#G"/><use transform="matrix(0.07407407407407408,0,0,0.07407407407407408,99.1851851851852,0)" xlink:href="#T"/><use transform="matrix(0.07407407407407408,0,0,0.07407407407407408,112.51851851851853,0)" xlink:href="#R"/><use transform="matrix(0.07407407407407408,0,0,0.07407407407407408,119.92592592592594,0)" xlink:href="#K"/><use transform="matrix(0.07407407407407408,0,0,0.07407407407407408,135.4814814814815,0)" xlink:href="#K"/></g></defs></g></svg>